<svg version="1.1" id="Layer_1" xmlns="http://www.w3.org/2000/svg" xmlns:xlink="http://www.w3.org/1999/xlink" x="0px" y="0px"
	 width="100%" viewBox="0 0 1024 1024" enable-background="new 0 0 1024 1024" xml:space="preserve">
<path fill="#000000" opacity="1.000000" stroke="none"
	d="
M399.824463,463.045776
	C391.801025,463.348663 392.001434,463.385834 393.394775,455.871643
	C397.910400,431.519196 402.296448,407.142517 406.662720,382.762695
	C407.916138,375.764130 411.173279,369.539795 414.033234,363.186981
	C424.825104,339.214752 438.229614,316.827667 455.112274,296.600342
	C455.752808,295.832916 456.393311,295.062744 457.077118,294.334503
	C462.148224,288.934113 465.813416,289.553375 468.453644,296.426331
	C473.469910,309.484436 478.351440,322.594330 483.327576,335.667969
	C483.899353,337.170105 484.090088,338.943695 485.993774,340.037628
	C489.119171,337.853455 491.042969,334.488892 493.379913,331.552094
	C501.680359,321.121155 509.798370,310.543335 518.690002,300.596832
	C520.705261,298.342468 522.714966,295.875397 526.257019,296.872681
	C529.845276,297.882965 530.133911,300.943207 530.510925,304.023468
	C532.045532,316.562469 533.715698,329.084869 535.239136,341.625153
	C535.478271,343.593536 535.920837,344.969055 537.957764,345.880554
	C550.860962,351.654480 560.419739,361.343353 568.036560,372.908295
	C571.378540,377.982513 575.327209,379.896790 581.254211,379.760071
	C599.585449,379.337280 617.860046,381.042053 636.162659,381.757385
	C642.097656,381.989380 644.010620,384.816620 643.083008,391.769958
	C641.917297,400.508392 640.858032,409.271790 638.472717,417.793091
	C637.495911,421.282959 637.117737,424.322876 641.828918,425.382263
	C643.719910,425.807434 644.639343,427.642792 645.525452,429.260193
	C651.928284,440.946869 658.365295,452.615265 664.688599,464.344971
	C667.886536,470.277069 667.376465,471.987793 661.702759,475.173706
	C652.697632,480.230225 643.663574,485.235870 634.610168,490.205475
	C629.328735,493.104553 627.655334,492.662140 624.613953,487.246368
	C620.780701,480.420380 617.137085,473.487671 613.432800,466.589661
	C612.249512,464.386261 611.168152,462.715607 608.054138,464.161987
	C592.711121,471.288300 576.228333,474.914490 560.020996,479.326019
	C546.247314,483.075134 543.060913,486.654663 542.351990,501.105164
	C542.174988,504.713837 542.325562,508.338593 542.325562,511.949127
	C538.112610,512.961365 535.061707,511.436493 531.960327,510.483185
	C529.695801,509.787109 529.743469,507.745911 529.918274,505.907532
	C530.437378,500.449707 530.353210,494.874725 532.095520,489.620209
	C533.436462,485.576111 532.172546,484.299683 528.081238,484.088959
	C521.277771,483.738556 514.499573,482.888641 507.713318,482.222717
	C506.641632,482.117554 505.333099,482.529266 504.544952,480.743835
	C508.217438,478.734650 512.370361,478.692505 516.255981,477.825287
	C543.887207,471.658356 571.197571,464.330536 598.080139,455.438599
	C602.039001,454.129120 604.861084,452.831421 605.162964,447.143036
	C605.597961,438.947113 608.236206,430.844604 610.177124,422.760559
	C611.414856,417.605316 614.338074,416.306763 620.120361,417.423279
	C622.257629,417.836029 624.965271,420.178528 626.491699,416.391785
	C627.740356,413.294312 626.759888,411.252991 623.963257,409.299377
	C619.383057,406.099762 615.885376,401.698486 613.986328,396.440430
	C612.707581,392.899811 610.587280,392.207031 607.217712,392.159637
	C595.060852,391.988617 582.909302,391.431549 570.752441,391.271729
	C567.117493,391.223907 565.001099,389.738312 563.128479,386.763763
	C560.026978,381.837189 556.709900,377.011230 553.099487,372.446777
	C542.929138,359.589081 529.459778,353.399994 513.116028,353.328979
	C502.953033,353.284821 492.781433,353.152618 482.664368,354.292267
	C478.822418,354.725037 477.007507,353.143280 475.755981,349.593933
	C471.603149,337.816559 467.149261,326.145508 462.832245,314.425812
	C462.260742,312.874268 461.937561,311.208984 460.465302,310.090363
	C458.373505,310.399048 457.588196,312.223633 456.547729,313.625122
	C441.363251,334.077789 429.042938,356.158417 419.886292,379.910675
	C415.675018,390.834900 415.021332,402.618622 413.273376,414.110931
	C413.008667,415.851227 413.476105,417.414764 414.677856,418.730865
	C424.840149,429.859833 436.342224,438.895081 451.261566,442.900818
	C454.567505,443.788452 456.989410,443.150085 459.511261,441.085632
	C467.188843,434.800751 472.467712,426.831085 476.256653,417.782227
	C479.219025,410.707428 481.781525,403.493866 483.581726,396.024841
	C483.879181,394.790619 483.691010,393.295593 486.086456,392.304077
	C487.577728,405.066559 489.188232,417.468292 483.626465,429.438843
	C479.406738,438.520935 472.925995,445.818970 465.015045,451.958618
	C460.684509,455.319489 456.049225,456.035400 450.902740,454.870392
	C437.788788,451.901825 426.286865,445.788666 416.120392,437.062775
	C414.502167,435.673828 412.864502,434.307495 410.724030,432.498047
	C408.050842,438.700439 408.023254,444.924072 406.453613,450.747650
	C405.631775,453.796722 404.959930,456.897888 404.434937,460.011688
	C404.010529,462.529144 402.668182,463.424530 399.824463,463.045776
M503.669861,340.758850
	C508.879700,342.172852 514.213867,341.510223 519.496765,341.716736
	C522.243713,341.824097 522.942383,340.230042 522.713257,337.907257
	C522.071045,331.395691 521.388245,324.888153 520.721436,318.379028
	C515.753967,322.695343 511.800537,327.292084 508.235291,332.172394
	C506.355652,334.745300 503.314117,336.691864 503.669861,340.758850
M637.635071,451.708801
	C637.607422,451.234100 637.579834,450.759399 637.530579,449.913147
	C635.357361,456.972015 634.973572,463.842163 635.162415,472.270020
	C637.099426,464.765259 636.909668,458.497589 637.635071,451.708801
M642.203491,463.384155
	C642.873779,464.999115 643.570068,466.578918 646.277832,466.405121
	C644.836853,463.415466 641.425720,461.535461 644.280762,457.338776
	C641.339050,459.170990 641.550720,460.918091 642.203491,463.384155
z"/>
<path fill="#000000" opacity="1.000000" stroke="none"
	d="
M387.083954,495.868164
	C391.085388,496.549866 394.651764,497.374878 398.257660,497.953613
	C402.607056,498.651703 404.444397,496.254181 402.751617,492.129150
	C401.741699,489.668091 400.551270,487.275757 399.344025,484.902344
	C397.724426,481.718109 398.788055,479.027008 400.922668,476.672699
	C402.989655,474.392944 404.873535,476.504456 406.752594,477.263519
	C430.078339,486.685760 454.020203,494.327515 478.082977,501.557495
	C499.105316,507.873840 520.269836,513.723328 541.426697,519.579651
	C545.209717,520.626831 547.439331,522.421265 548.540222,526.248840
	C554.018494,545.295593 556.359070,564.621033 554.602539,584.428345
	C554.042297,590.745850 553.350891,597.011658 551.648804,603.121155
	C548.886292,613.037048 545.598083,614.540588 536.569031,609.805603
	C523.869507,603.145813 512.109558,594.922913 499.938354,587.389099
	C463.127838,564.603943 426.443695,541.614563 389.690552,518.736633
	C381.497406,513.636597 381.422882,513.688416 383.459717,504.337799
	C384.102997,501.384827 383.584015,497.944336 387.083954,495.868164
M523.066406,564.353760
	C522.747009,561.419128 520.407104,562.380615 518.834412,562.351318
	C511.172729,562.208801 503.507568,562.173340 495.844360,562.219971
	C492.201294,562.242126 490.874298,560.370361 490.656403,556.989807
	C490.424286,553.389771 492.489105,552.333496 495.493378,552.050293
	C499.827148,551.641724 504.140350,551.997620 508.465240,552.293579
	C523.461304,553.319702 523.687500,553.149353 528.833801,539.272217
	C529.296936,538.023438 529.727478,536.762634 530.182922,535.510986
	C530.550720,534.500122 530.493469,533.590454 529.743835,532.732849
	C527.026672,529.624329 516.696228,531.459167 515.906494,535.507324
	C514.961548,540.351013 512.088928,541.224426 507.993958,540.881409
	C505.505554,540.672974 503.013855,540.416748 500.520599,540.377808
	C498.216461,540.341797 496.487885,539.430847 496.046112,537.205994
	C495.011414,531.994629 491.709198,530.572754 486.929016,531.255615
	C483.430115,531.755371 481.693420,529.999939 480.995575,526.742798
	C480.621094,524.994934 480.483856,522.722717 478.190552,522.499573
	C473.508698,522.044250 468.791656,521.886230 464.106293,523.223450
	C466.270721,525.312988 468.986084,524.916748 471.403595,524.690674
	C475.770081,524.282532 477.559204,526.145935 478.617676,530.254211
	C481.231628,540.399414 484.389221,550.403259 487.154144,560.511597
	C487.826691,562.970520 488.604431,565.150146 491.414246,565.270081
	C501.847687,565.715515 512.292725,566.435059 523.066406,564.353760
M447.003479,520.197021
	C448.619293,518.008301 450.235107,515.819580 452.520660,512.723633
	C445.348175,513.080322 441.786163,509.265564 439.045746,503.796448
	C437.169922,510.274139 432.565277,512.721985 425.267456,513.620605
	C431.766235,517.882202 431.969391,523.041321 430.554138,530.049683
	C436.668060,525.022522 441.818237,526.180359 446.832550,528.738159
	C446.832550,525.577820 446.832550,523.274536 447.003479,520.197021
M495.057800,568.909546
	C492.344971,568.417969 491.046265,570.037964 490.653625,572.299988
	C490.373230,573.915649 491.627106,575.027283 493.126434,575.501221
	C494.688751,575.994934 496.074829,575.460815 496.956940,574.086243
	C498.268677,572.042236 497.705933,570.390076 495.057800,568.909546
M514.348572,571.110107
	C513.879639,573.402100 514.520996,575.107422 517.011169,575.527649
	C518.708618,575.814026 519.880737,574.836914 520.464905,573.312683
	C521.061157,571.757080 520.668518,570.373169 519.258667,569.391235
	C517.337463,568.053101 515.855713,568.732117 514.348572,571.110107
z"/>
<path fill="#000000" opacity="1.000000" stroke="none"
	d="
M486.947266,664.477905
	C494.370178,662.527710 500.759796,664.411438 507.740051,668.551514
	C507.740051,662.284912 507.997772,656.865417 507.670166,651.481567
	C507.317108,645.679260 511.250549,646.866455 514.611023,646.540649
	C518.679871,646.145996 519.226257,648.271240 519.208923,651.644287
	C519.112061,670.457886 519.188965,689.272339 519.150757,708.086304
	C519.145935,710.481995 519.721802,713.647034 516.023010,713.759094
	C512.861084,713.854980 508.737671,715.753540 507.253265,710.260742
	C500.049103,715.377380 492.381226,716.595581 484.146362,713.283630
	C478.257721,710.915344 474.068359,706.802612 471.728027,700.992554
	C466.493073,687.996399 469.980865,669.063477 486.947266,664.477905
M507.582184,695.665283
	C507.608917,692.513306 507.680573,689.360962 507.652985,686.209412
	C507.595367,679.627197 504.479431,675.728638 498.090393,674.149719
	C487.992188,671.654175 480.649292,678.933533 481.206512,690.887390
	C481.534668,697.926025 485.506348,703.323425 491.329254,704.643738
	C498.725311,706.320923 503.884949,703.707153 507.582184,695.665283
z"/>
<path fill="#000000" opacity="1.000000" stroke="none"
	d="
M581.858398,707.171265
	C581.609558,710.081665 582.744507,713.503418 578.698608,713.750793
	C575.509583,713.945801 571.483032,715.538269 570.179321,710.505920
	C556.941162,717.153687 545.649597,715.884521 538.079285,706.936829
	C530.514404,697.995544 530.169495,682.110962 537.329895,672.425598
	C544.135864,663.219604 554.887634,661.702332 570.109131,668.009277
	C571.249512,662.371338 570.747314,656.743408 570.564636,651.207092
	C570.410706,646.540100 572.862915,646.154175 576.439209,646.044128
	C580.360962,645.923401 581.484009,647.405090 581.470825,651.341797
	C581.408936,669.806946 581.686829,688.273254 581.858398,707.171265
M559.048279,673.665771
	C552.682007,673.473511 547.494141,675.579468 545.039734,681.819397
	C542.362854,688.624695 542.856079,695.362488 547.838501,700.963501
	C553.608215,707.449585 565.156433,706.098145 569.376465,698.802673
	C571.349304,695.392029 570.590088,691.664856 570.618225,688.059082
	C570.685303,679.427795 567.999451,676.000366 559.048279,673.665771
z"/>
<path fill="#000000" opacity="1.000000" stroke="none"
	d="
M426.311829,683.773560
	C425.824066,687.359253 423.310547,686.956726 421.256958,686.980835
	C413.267731,687.074768 405.265289,687.300659 397.291290,686.946655
	C392.744965,686.744690 391.516937,688.295959 391.827179,692.638000
	C392.217743,698.104614 391.832062,703.621887 392.006989,709.110107
	C392.152283,713.669678 389.416992,714.052551 385.867065,714.166748
	C382.028717,714.290405 380.579773,712.949402 380.612427,708.982422
	C380.765900,690.339661 380.775879,671.694092 380.609467,653.051636
	C380.572083,648.863525 382.095490,647.583252 386.142944,647.649841
	C398.957642,647.860901 411.778931,647.903870 424.593994,647.735046
	C428.831390,647.679260 430.048187,649.431458 430.120300,653.366455
	C430.197418,657.573608 428.116913,658.335876 424.538605,658.280823
	C415.551788,658.142334 406.552338,658.485229 397.575775,658.153625
	C392.838654,657.978638 391.353088,659.960876 391.388123,664.260498
	C391.508301,679.013977 389.852203,676.433167 403.315796,676.638489
	C408.807861,676.722229 414.302246,676.648682 419.795532,676.664795
	C426.301300,676.683838 426.301270,676.692261 426.311829,683.773560
z"/>
<path fill="#000000" opacity="1.000000" stroke="none"
	d="
M601.608643,707.366821
	C593.174316,697.013611 592.571045,683.502625 599.849731,673.390686
	C606.032410,664.801636 618.584595,661.317200 629.494385,665.324707
	C638.789795,668.739258 644.135498,675.550293 645.234802,685.315735
	C646.455322,696.157532 643.688049,705.598328 633.603027,711.377747
	C623.905579,716.935059 614.213684,716.237244 604.877686,710.227356
	C603.772705,709.516052 602.862549,708.502075 601.608643,707.366821
M633.961731,686.303223
	C632.226013,677.416565 626.042603,672.348145 618.485596,673.617493
	C610.128296,675.021240 605.315735,682.283203 606.371704,691.897095
	C607.281067,700.176880 613.467285,705.404480 621.682312,704.835083
	C629.855713,704.268555 634.707153,697.337280 633.961731,686.303223
z"/>
<path fill="#000000" opacity="1.000000" stroke="none"
	d="
M376.390503,458.227905
	C377.004578,458.588318 377.339050,458.735321 377.531586,458.989746
	C382.612976,465.703217 388.709442,469.627411 397.517944,466.498566
	C398.184631,466.261749 399.098846,466.721680 400.227325,466.913757
	C399.798798,472.090851 395.157318,475.473511 394.727570,480.093506
	C394.280914,484.896088 398.732544,488.681488 399.431793,494.778076
	C389.493896,492.034454 380.387604,492.051910 374.655945,503.320099
	C371.660828,497.239014 373.495972,491.505798 370.842010,487.561493
	C368.237671,483.690857 362.297913,483.485992 358.986237,479.906158
	C359.576904,477.286713 361.796783,476.773041 363.526855,476.231812
	C369.694458,474.302460 372.714142,470.431610 372.971436,463.868500
	C373.047028,461.940002 372.262543,458.486542 376.390503,458.227905
z"/>
<path fill="#000000" opacity="1.000000" stroke="none"
	d="
M455.342896,698.994751
	C455.340424,702.814880 455.145233,706.149780 455.381226,709.453796
	C455.703308,713.962219 452.894409,714.037659 449.649353,714.142822
	C446.137604,714.256653 444.556213,713.112610 444.603577,709.306702
	C444.768860,696.024231 444.816956,682.735962 444.590698,669.455383
	C444.516785,665.117188 446.653992,664.676331 450.096985,664.598755
	C453.784912,664.515808 455.511810,665.484619 455.407379,669.603943
	C455.163330,679.228943 455.337524,688.864502 455.342896,698.994751
z"/>
<path fill="#000000" opacity="1.000000" stroke="none"
	d="
M559.375000,538.039734
	C557.897278,535.561523 554.976135,534.982117 553.845947,531.784668
	C558.725769,529.401062 562.435303,525.661926 563.581482,518.236633
	C567.828552,524.434448 572.619751,526.716003 579.825012,525.989136
	C575.725708,532.097900 575.207520,537.427795 578.850525,544.031311
	C571.670471,542.117981 565.811584,541.355042 561.470032,546.984741
	C558.713379,544.047913 560.253662,540.990173 559.375000,538.039734
z"/>
<path fill="#000000" opacity="1.000000" stroke="none"
	d="
M455.523560,655.438843
	C452.482452,658.486267 448.776520,657.818298 445.967712,656.821777
	C442.433777,655.568054 444.377686,651.604248 444.091003,648.807678
	C443.877808,646.727722 444.818024,645.221436 447.129303,645.083374
	C456.080902,644.548523 456.749207,644.956726 455.523560,655.438843
z"/>
</svg>
